<svg xmlns="http://www.w3.org/2000/svg" width="32" height="32" viewBox="0 0 32 32">
  <rect width="32" height="32" rx="6.4" fill="#6366f1"/>
  <circle cx="16" cy="16" r="14.4" fill="white" opacity="0.2"/>
  <circle cx="16" cy="16" r="12.8" fill="none" stroke="white" stroke-width="1.28"/>
  <!-- Hour hand -->
  <line x1="16" y1="16" x2="16" y2="8.959999999999999" stroke="white" stroke-width="1.44" stroke-linecap="round"/>
  <!-- Minute hand -->
  <line x1="16" y1="16" x2="21.12" y2="12.16" stroke="white" stroke-width="0.96" stroke-linecap="round"/>
  <!-- Center dot -->
  <circle cx="16" cy="16" r="0.96" fill="white"/>
  <!-- Hour markers -->
  <line x1="16.0" y1="5.1" x2="16.0" y2="3.8" stroke="white" stroke-width="0.64" stroke-linecap="round"/>
  <line x1="21.4" y1="6.6" x2="22.1" y2="5.5" stroke="white" stroke-width="0.64" stroke-linecap="round"/>
  <line x1="25.4" y1="10.6" x2="26.5" y2="9.9" stroke="white" stroke-width="0.64" stroke-linecap="round"/>
  <line x1="26.9" y1="16.0" x2="28.2" y2="16.0" stroke="white" stroke-width="0.64" stroke-linecap="round"/>
  <line x1="25.4" y1="21.4" x2="26.5" y2="22.1" stroke="white" stroke-width="0.64" stroke-linecap="round"/>
  <line x1="21.4" y1="25.4" x2="22.1" y2="26.5" stroke="white" stroke-width="0.64" stroke-linecap="round"/>
  <line x1="16.0" y1="26.9" x2="16.0" y2="28.2" stroke="white" stroke-width="0.64" stroke-linecap="round"/>
  <line x1="10.6" y1="25.4" x2="9.9" y2="26.5" stroke="white" stroke-width="0.64" stroke-linecap="round"/>
  <line x1="6.6" y1="21.4" x2="5.5" y2="22.1" stroke="white" stroke-width="0.64" stroke-linecap="round"/>
  <line x1="5.1" y1="16.0" x2="3.8" y2="16.0" stroke="white" stroke-width="0.64" stroke-linecap="round"/>
  <line x1="6.6" y1="10.6" x2="5.5" y2="9.9" stroke="white" stroke-width="0.64" stroke-linecap="round"/>
  <line x1="10.6" y1="6.6" x2="9.9" y2="5.5" stroke="white" stroke-width="0.64" stroke-linecap="round"/>
</svg>