<svg xmlns="http://www.w3.org/2000/svg" width="192" height="192" viewBox="0 0 192 192">
  <rect width="192" height="192" rx="38.400000000000006" fill="#6366f1"/>
  <circle cx="96" cy="96" r="86.4" fill="white" opacity="0.2"/>
  <circle cx="96" cy="96" r="76.80000000000001" fill="none" stroke="white" stroke-width="7.68"/>
  <!-- Hour hand -->
  <line x1="96" y1="96" x2="96" y2="53.75999999999999" stroke="white" stroke-width="8.64" stroke-linecap="round"/>
  <!-- Minute hand -->
  <line x1="96" y1="96" x2="126.72" y2="72.96" stroke="white" stroke-width="5.76" stroke-linecap="round"/>
  <!-- Center dot -->
  <circle cx="96" cy="96" r="5.76" fill="white"/>
  <!-- Hour markers -->
  <line x1="96.0" y1="30.7" x2="96.0" y2="23.0" stroke="white" stroke-width="3.84" stroke-linecap="round"/>
  <line x1="128.6" y1="39.5" x2="132.5" y2="32.8" stroke="white" stroke-width="3.84" stroke-linecap="round"/>
  <line x1="152.5" y1="63.4" x2="159.2" y2="59.5" stroke="white" stroke-width="3.84" stroke-linecap="round"/>
  <line x1="161.3" y1="96.0" x2="169.0" y2="96.0" stroke="white" stroke-width="3.84" stroke-linecap="round"/>
  <line x1="152.5" y1="128.6" x2="159.2" y2="132.5" stroke="white" stroke-width="3.84" stroke-linecap="round"/>
  <line x1="128.6" y1="152.5" x2="132.5" y2="159.2" stroke="white" stroke-width="3.84" stroke-linecap="round"/>
  <line x1="96.0" y1="161.3" x2="96.0" y2="169.0" stroke="white" stroke-width="3.84" stroke-linecap="round"/>
  <line x1="63.4" y1="152.5" x2="59.5" y2="159.2" stroke="white" stroke-width="3.84" stroke-linecap="round"/>
  <line x1="39.5" y1="128.6" x2="32.8" y2="132.5" stroke="white" stroke-width="3.84" stroke-linecap="round"/>
  <line x1="30.7" y1="96.0" x2="23.0" y2="96.0" stroke="white" stroke-width="3.84" stroke-linecap="round"/>
  <line x1="39.5" y1="63.4" x2="32.8" y2="59.5" stroke="white" stroke-width="3.84" stroke-linecap="round"/>
  <line x1="63.4" y1="39.5" x2="59.5" y2="32.8" stroke="white" stroke-width="3.84" stroke-linecap="round"/>
</svg>