<svg xmlns="http://www.w3.org/2000/svg" width="384" height="384" viewBox="0 0 384 384">
  <rect width="384" height="384" rx="76.80000000000001" fill="#6366f1"/>
  <circle cx="192" cy="192" r="172.8" fill="white" opacity="0.2"/>
  <circle cx="192" cy="192" r="153.60000000000002" fill="none" stroke="white" stroke-width="15.36"/>
  <!-- Hour hand -->
  <line x1="192" y1="192" x2="192" y2="107.51999999999998" stroke="white" stroke-width="17.28" stroke-linecap="round"/>
  <!-- Minute hand -->
  <line x1="192" y1="192" x2="253.44" y2="145.92" stroke="white" stroke-width="11.52" stroke-linecap="round"/>
  <!-- Center dot -->
  <circle cx="192" cy="192" r="11.52" fill="white"/>
  <!-- Hour markers -->
  <line x1="192.0" y1="61.4" x2="192.0" y2="46.1" stroke="white" stroke-width="7.68" stroke-linecap="round"/>
  <line x1="257.3" y1="78.9" x2="265.0" y2="65.6" stroke="white" stroke-width="7.68" stroke-linecap="round"/>
  <line x1="305.1" y1="126.7" x2="318.4" y2="119.0" stroke="white" stroke-width="7.68" stroke-linecap="round"/>
  <line x1="322.6" y1="192.0" x2="337.9" y2="192.0" stroke="white" stroke-width="7.68" stroke-linecap="round"/>
  <line x1="305.1" y1="257.3" x2="318.4" y2="265.0" stroke="white" stroke-width="7.68" stroke-linecap="round"/>
  <line x1="257.3" y1="305.1" x2="265.0" y2="318.4" stroke="white" stroke-width="7.68" stroke-linecap="round"/>
  <line x1="192.0" y1="322.6" x2="192.0" y2="337.9" stroke="white" stroke-width="7.68" stroke-linecap="round"/>
  <line x1="126.7" y1="305.1" x2="119.0" y2="318.4" stroke="white" stroke-width="7.68" stroke-linecap="round"/>
  <line x1="78.9" y1="257.3" x2="65.6" y2="265.0" stroke="white" stroke-width="7.68" stroke-linecap="round"/>
  <line x1="61.4" y1="192.0" x2="46.1" y2="192.0" stroke="white" stroke-width="7.68" stroke-linecap="round"/>
  <line x1="78.9" y1="126.7" x2="65.6" y2="119.0" stroke="white" stroke-width="7.68" stroke-linecap="round"/>
  <line x1="126.7" y1="78.9" x2="119.0" y2="65.6" stroke="white" stroke-width="7.68" stroke-linecap="round"/>
</svg>