<svg xmlns="http://www.w3.org/2000/svg" width="144" height="144" viewBox="0 0 144 144">
  <rect width="144" height="144" rx="28.8" fill="#6366f1"/>
  <circle cx="72" cy="72" r="64.8" fill="white" opacity="0.2"/>
  <circle cx="72" cy="72" r="57.6" fill="none" stroke="white" stroke-width="5.76"/>
  <!-- Hour hand -->
  <line x1="72" y1="72" x2="72" y2="40.31999999999999" stroke="white" stroke-width="6.4799999999999995" stroke-linecap="round"/>
  <!-- Minute hand -->
  <line x1="72" y1="72" x2="95.04" y2="54.72" stroke="white" stroke-width="4.32" stroke-linecap="round"/>
  <!-- Center dot -->
  <circle cx="72" cy="72" r="4.32" fill="white"/>
  <!-- Hour markers -->
  <line x1="72.0" y1="23.0" x2="72.0" y2="17.3" stroke="white" stroke-width="2.88" stroke-linecap="round"/>
  <line x1="96.5" y1="29.6" x2="99.4" y2="24.6" stroke="white" stroke-width="2.88" stroke-linecap="round"/>
  <line x1="114.4" y1="47.5" x2="119.4" y2="44.6" stroke="white" stroke-width="2.88" stroke-linecap="round"/>
  <line x1="121.0" y1="72.0" x2="126.7" y2="72.0" stroke="white" stroke-width="2.88" stroke-linecap="round"/>
  <line x1="114.4" y1="96.5" x2="119.4" y2="99.4" stroke="white" stroke-width="2.88" stroke-linecap="round"/>
  <line x1="96.5" y1="114.4" x2="99.4" y2="119.4" stroke="white" stroke-width="2.88" stroke-linecap="round"/>
  <line x1="72.0" y1="121.0" x2="72.0" y2="126.7" stroke="white" stroke-width="2.88" stroke-linecap="round"/>
  <line x1="47.5" y1="114.4" x2="44.6" y2="119.4" stroke="white" stroke-width="2.88" stroke-linecap="round"/>
  <line x1="29.6" y1="96.5" x2="24.6" y2="99.4" stroke="white" stroke-width="2.88" stroke-linecap="round"/>
  <line x1="23.0" y1="72.0" x2="17.3" y2="72.0" stroke="white" stroke-width="2.88" stroke-linecap="round"/>
  <line x1="29.6" y1="47.5" x2="24.6" y2="44.6" stroke="white" stroke-width="2.88" stroke-linecap="round"/>
  <line x1="47.5" y1="29.6" x2="44.6" y2="24.6" stroke="white" stroke-width="2.88" stroke-linecap="round"/>
</svg>