<svg xmlns="http://www.w3.org/2000/svg" width="512" height="512" viewBox="0 0 512 512">
  <rect width="512" height="512" rx="102.4" fill="#6366f1"/>
  <circle cx="256" cy="256" r="176.4" fill="white" opacity="0.2"/>
  <circle cx="256" cy="256" r="156.8" fill="none" stroke="white" stroke-width="15.68"/>
  <!-- Hour hand -->
  <line x1="256" y1="256" x2="256" y2="169.76" stroke="white" stroke-width="17.64" stroke-linecap="round"/>
  <!-- Minute hand -->
  <line x1="256" y1="256" x2="318.72" y2="208.96" stroke="white" stroke-width="11.76" stroke-linecap="round"/>
  <!-- Center dot -->
  <circle cx="256" cy="256" r="11.76" fill="white"/>
  <!-- Hour markers -->
  <line x1="256.0" y1="122.7" x2="256.0" y2="107.0" stroke="white" stroke-width="7.84" stroke-linecap="round"/>
  <line x1="322.6" y1="140.6" x2="330.5" y2="127.0" stroke="white" stroke-width="7.84" stroke-linecap="round"/>
  <line x1="371.4" y1="189.4" x2="385.0" y2="181.5" stroke="white" stroke-width="7.84" stroke-linecap="round"/>
  <line x1="389.3" y1="256.0" x2="405.0" y2="256.0" stroke="white" stroke-width="7.84" stroke-linecap="round"/>
  <line x1="371.4" y1="322.6" x2="385.0" y2="330.5" stroke="white" stroke-width="7.84" stroke-linecap="round"/>
  <line x1="322.6" y1="371.4" x2="330.5" y2="385.0" stroke="white" stroke-width="7.84" stroke-linecap="round"/>
  <line x1="256.0" y1="389.3" x2="256.0" y2="405.0" stroke="white" stroke-width="7.84" stroke-linecap="round"/>
  <line x1="189.4" y1="371.4" x2="181.5" y2="385.0" stroke="white" stroke-width="7.84" stroke-linecap="round"/>
  <line x1="140.6" y1="322.6" x2="127.0" y2="330.5" stroke="white" stroke-width="7.84" stroke-linecap="round"/>
  <line x1="122.7" y1="256.0" x2="107.0" y2="256.0" stroke="white" stroke-width="7.84" stroke-linecap="round"/>
  <line x1="140.6" y1="189.4" x2="127.0" y2="181.5" stroke="white" stroke-width="7.84" stroke-linecap="round"/>
  <line x1="189.4" y1="140.6" x2="181.5" y2="127.0" stroke="white" stroke-width="7.84" stroke-linecap="round"/>
</svg>