<svg xmlns="http://www.w3.org/2000/svg" width="512" height="512" viewBox="0 0 512 512">
  <rect width="512" height="512" rx="102.4" fill="#6366f1"/>
  <circle cx="256" cy="256" r="230.4" fill="white" opacity="0.2"/>
  <circle cx="256" cy="256" r="204.8" fill="none" stroke="white" stroke-width="20.48"/>
  <!-- Hour hand -->
  <line x1="256" y1="256" x2="256" y2="143.35999999999999" stroke="white" stroke-width="23.04" stroke-linecap="round"/>
  <!-- Minute hand -->
  <line x1="256" y1="256" x2="337.92" y2="194.56" stroke="white" stroke-width="15.36" stroke-linecap="round"/>
  <!-- Center dot -->
  <circle cx="256" cy="256" r="15.36" fill="white"/>
  <!-- Hour markers -->
  <line x1="256.0" y1="81.9" x2="256.0" y2="61.4" stroke="white" stroke-width="10.24" stroke-linecap="round"/>
  <line x1="343.0" y1="105.2" x2="353.3" y2="87.5" stroke="white" stroke-width="10.24" stroke-linecap="round"/>
  <line x1="406.8" y1="169.0" x2="424.5" y2="158.7" stroke="white" stroke-width="10.24" stroke-linecap="round"/>
  <line x1="430.1" y1="256.0" x2="450.6" y2="256.0" stroke="white" stroke-width="10.24" stroke-linecap="round"/>
  <line x1="406.8" y1="343.0" x2="424.5" y2="353.3" stroke="white" stroke-width="10.24" stroke-linecap="round"/>
  <line x1="343.0" y1="406.8" x2="353.3" y2="424.5" stroke="white" stroke-width="10.24" stroke-linecap="round"/>
  <line x1="256.0" y1="430.1" x2="256.0" y2="450.6" stroke="white" stroke-width="10.24" stroke-linecap="round"/>
  <line x1="169.0" y1="406.8" x2="158.7" y2="424.5" stroke="white" stroke-width="10.24" stroke-linecap="round"/>
  <line x1="105.2" y1="343.0" x2="87.5" y2="353.3" stroke="white" stroke-width="10.24" stroke-linecap="round"/>
  <line x1="81.9" y1="256.0" x2="61.4" y2="256.0" stroke="white" stroke-width="10.24" stroke-linecap="round"/>
  <line x1="105.2" y1="169.0" x2="87.5" y2="158.7" stroke="white" stroke-width="10.24" stroke-linecap="round"/>
  <line x1="169.0" y1="105.2" x2="158.7" y2="87.5" stroke="white" stroke-width="10.24" stroke-linecap="round"/>
</svg>