<svg xmlns="http://www.w3.org/2000/svg" width="96" height="96" viewBox="0 0 96 96">
  <rect width="96" height="96" rx="19.200000000000003" fill="#6366f1"/>
  <circle cx="48" cy="48" r="43.2" fill="white" opacity="0.2"/>
  <circle cx="48" cy="48" r="38.400000000000006" fill="none" stroke="white" stroke-width="3.84"/>
  <!-- Hour hand -->
  <line x1="48" y1="48" x2="48" y2="26.879999999999995" stroke="white" stroke-width="4.32" stroke-linecap="round"/>
  <!-- Minute hand -->
  <line x1="48" y1="48" x2="63.36" y2="36.48" stroke="white" stroke-width="2.88" stroke-linecap="round"/>
  <!-- Center dot -->
  <circle cx="48" cy="48" r="2.88" fill="white"/>
  <!-- Hour markers -->
  <line x1="48.0" y1="15.4" x2="48.0" y2="11.5" stroke="white" stroke-width="1.92" stroke-linecap="round"/>
  <line x1="64.3" y1="19.7" x2="66.2" y2="16.4" stroke="white" stroke-width="1.92" stroke-linecap="round"/>
  <line x1="76.3" y1="31.7" x2="79.6" y2="29.8" stroke="white" stroke-width="1.92" stroke-linecap="round"/>
  <line x1="80.6" y1="48.0" x2="84.5" y2="48.0" stroke="white" stroke-width="1.92" stroke-linecap="round"/>
  <line x1="76.3" y1="64.3" x2="79.6" y2="66.2" stroke="white" stroke-width="1.92" stroke-linecap="round"/>
  <line x1="64.3" y1="76.3" x2="66.2" y2="79.6" stroke="white" stroke-width="1.92" stroke-linecap="round"/>
  <line x1="48.0" y1="80.6" x2="48.0" y2="84.5" stroke="white" stroke-width="1.92" stroke-linecap="round"/>
  <line x1="31.7" y1="76.3" x2="29.8" y2="79.6" stroke="white" stroke-width="1.92" stroke-linecap="round"/>
  <line x1="19.7" y1="64.3" x2="16.4" y2="66.2" stroke="white" stroke-width="1.92" stroke-linecap="round"/>
  <line x1="15.4" y1="48.0" x2="11.5" y2="48.0" stroke="white" stroke-width="1.92" stroke-linecap="round"/>
  <line x1="19.7" y1="31.7" x2="16.4" y2="29.8" stroke="white" stroke-width="1.92" stroke-linecap="round"/>
  <line x1="31.7" y1="19.7" x2="29.8" y2="16.4" stroke="white" stroke-width="1.92" stroke-linecap="round"/>
</svg>